# xmcd
#
# Track frame offsets: 
#        150
#        18370
#        37122
#        55597
#        74080
#        91327
#        108660
#        122537
#        138350
#        159995
#        175942
#        191112
#        209767
#        229152
#        244827
#        262780
#        283070
#        306930
#
# Disc length: 4356 seconds
#
# Revision: 3
# Processed by: cddbd v1.5.2PL0 Copyright (c) Steve Scherf et al.
# Submitted via: ExactAudioCopy v1.0b3
#
DISCID=09110212
DTITLE=Various Artist - Venerdì '70 volume 2 [cd1]
DYEAR=1900
DGENRE=Disco
TTITLE0=K.C. and the Sunshine Band - I'm your Boogie man
TTITLE1=Sylvester - Dance (Disco head)
TTITLE2=Mc Fadden and Whitehead - Ain't no stoppin us now
TTITLE3=Odissey - Going back to my roots
TTITLE4=Montreal Sound - Music
TTITLE5=Silver Convention - Get up and Boogie (that's right)
TTITLE6=Jesse Green - Nice and slow
TTITLE7=Village People - San Francisco
TTITLE8=Joe Batan - Rap-o clap-o
TTITLE9=Jimmy Bo Horne - Gimme some
TTITLE10=Detroit Emeralds - Let's get together
TTITLE11=George Mc Crae - Don't you feel my love
TTITLE12=Philadelphia International All Stars - Let's clean up the get
TTITLE12=to
TTITLE13=Voyage - Souvenir
TTITLE14=Linda and the Funky Boys - Stop
TTITLE15=Fatback Band - Spanish Hustle
TTITLE16=T. Connection - At midnight
TTITLE17=Players Association - Turn the music up
EXTD=
EXTT0=
EXTT1=
EXTT2=
EXTT3=
EXTT4=
EXTT5=
EXTT6=
EXTT7=
EXTT8=
EXTT9=
EXTT10=
EXTT11=
EXTT12=
EXTT13=
EXTT14=
EXTT15=
EXTT16=
EXTT17=
PLAYORDER=
